<?xml version="1.0" encoding="UTF-8"?>
<svg id="Layer_1" data-name="Layer 1" xmlns="http://www.w3.org/2000/svg" version="1.1" viewBox="0 0 22 23">
  <defs>
    <style>
      .cls-1 {
        fill: #6d58b1;
        stroke-width: 0px;
      }
    </style>
  </defs>
  <path class="cls-1" d="M3.3,22h13.7c.9,0,1.7-.4,2.3-1,.6-.6.9-1.4.9-2.3v-6.9c0-.2-.1-.5-.3-.6-.2-.2-.4-.3-.6-.3-.2,0-.5,0-.6.3-.2.2-.3.4-.3.6v6.9c0,.4-.1.7-.4,1-.3.3-.6.4-1,.4H3.3c-.4,0-.7,0-1-.4s-.4-.6-.4-1V5.1c0-.4,0-.7.3-1,.3-.3.6-.4,1-.4h6.9c.2,0,.5-.1.6-.3.2-.2.3-.4.3-.6,0-.2,0-.5-.3-.6-.2-.2-.4-.3-.6-.3H3.2c-.9,0-1.7.4-2.3,1C.3,3.5,0,4.3,0,5.1v13.7c0,.9.4,1.7,1,2.3.6.6,1.4.9,2.3.9Z"/>
  <path class="cls-1" d="M8.7,9.7l-.7,3.3c0,.2,0,.3,0,.5,0,.1.1.3.2.4.1.1.2.2.4.2.1,0,.3,0,.5,0l3.3-.7c.2,0,.3-.1.5-.2l8.3-8.4c.3-.3.5-.6.6-.9.1-.3.2-.7.2-1.1,0-.4,0-.7-.2-1-.1-.3-.3-.6-.6-.9-.5-.5-1.2-.8-1.9-.8-.7,0-1.4.3-1.9.8l-8.3,8.4c-.1.1-.2.3-.2.5ZM18.5,2.2c.2-.2.4-.3.6-.3.2,0,.5,0,.6.3.2.2.3.4.3.6,0,.2,0,.5-.3.6l-.6.6-1.3-1.3.6-.6ZM10.4,10.3l6.2-6.2,1.3,1.3-6.2,6.2-1.6.4.4-1.7Z"/>
</svg>